<svg id="Layer_2" viewBox="0 0 512 512" xmlns="http://www.w3.org/2000/svg" xmlns:xlink="http://www.w3.org/1999/xlink" data-name="Layer 2"><linearGradient id="linear-gradient" gradientUnits="userSpaceOnUse" x1="43.93" x2="468.07" y1="43.93" y2="468.07"><stop offset="0" stop-color="#ff8c52"/><stop offset="1" stop-color="#ff2146"/></linearGradient><g id="Icon"><g id="_1" data-name="1"><rect fill="url(#linear-gradient)" height="512" rx="150" width="512"/><path d="m293.56 147.64h-29.56c-4.79 0-8.91 3.4-9.82 8.11-.88 4.54-3.54 18.37-35.74 18.37-5.52 0-10 4.48-10 10v24.32c0 5.52 4.48 10 10 10h20.17v135.93c0 5.52 4.48 10 10 10h44.95c5.52 0 10-4.48 10-10v-196.73c0-5.52-4.48-10-10-10zm0 206.73h-44.95v-145.93h-30.17v-24.32c26.78 0 42.18-8.93 45.56-26.48h29.55v196.73z" fill="#ffeef2"/></g></g></svg>