<svg id="Layer_2" viewBox="0 0 512 512" xmlns="http://www.w3.org/2000/svg" xmlns:xlink="http://www.w3.org/1999/xlink" data-name="Layer 2"><linearGradient id="linear-gradient" gradientUnits="userSpaceOnUse" x1="43.93" x2="468.07" y1="43.93" y2="468.07"><stop offset="0" stop-color="#ff8c52"/><stop offset="1" stop-color="#ff2146"/></linearGradient><g id="Icon"><g id="_2" data-name="2"><rect fill="url(#linear-gradient)" height="512" rx="150" width="512"/><path d="m320.04 313.42h-66.37c2.7-8.22 9.37-15.87 20.22-23.26 15.74-10.56 35.08-23.73 37.83-26.48 14.41-14.41 21.71-33.77 21.71-57.56 0-19.88-6.46-35.21-19.2-45.58-12.15-9.89-29.98-14.91-52.99-14.91-51.66 0-78.96 25.92-78.96 74.96 0 5.52 4.48 10 10 10h44.02c5.39 0 9.81-4.27 9.99-9.66.83-24.21 5.16-24.21 14.64-24.21 4.11 0 10.32 0 10.32 16.78 0 15.43-22.64 30.03-42.62 42.92-3.38 2.18-6.87 4.43-10.19 6.64-.25.17-.49.34-.72.53-16.62 13.36-28.74 29.8-36.02 48.87-.54 1.41-.74 2.89-.63 4.35-1.55 1.76-2.49 4.07-2.49 6.61v32.94c0 5.52 4.48 10 10 10h131.46c5.52 0 10-4.48 10-10v-32.94c0-5.52-4.48-10-10-10zm-96.05-42.03c24.94-16.62 57.26-33.86 57.26-57.88 0-17.86-6.77-26.78-20.32-26.78-17.55 0-23.71 7.08-24.63 33.87h-44.02c0-43.41 23.09-64.96 68.96-64.96 41.56 0 62.19 16.93 62.19 50.49 0 21.24-6.16 37.87-18.78 50.49-1.23 1.23-12.93 9.54-36.33 25.24-14.47 9.85-23.4 20.94-25.55 34.17h-51.72c6.46-16.93 17.24-32.02 32.94-44.64zm96.05 84.97h-131.46v-32.94h131.46z" fill="#ffeef2"/></g></g></svg>