<svg id="Layer_2" viewBox="0 0 512 512" xmlns="http://www.w3.org/2000/svg" xmlns:xlink="http://www.w3.org/1999/xlink" data-name="Layer 2"><linearGradient id="linear-gradient" gradientUnits="userSpaceOnUse" x1="43.93" x2="468.07" y1="43.93" y2="468.07"><stop offset="0" stop-color="#ff8c52"/><stop offset="1" stop-color="#ff2146"/></linearGradient><g id="Icon"><g id="_3" data-name="3"><rect fill="url(#linear-gradient)" height="512" rx="150" width="512"/><path d="m312.23 250.5c8.96-10.46 13.49-23.72 13.49-39.6 0-20.97-5.71-37.38-16.97-48.78-11.22-11.36-27.72-17.47-49.04-18.17-.11 0-.22 0-.33 0-1.5 0-2.98.34-4.31.98-1.34-.64-2.81-.98-4.31-.98-.18 0-.36 0-.54.01-45.09 2.45-67.95 26.32-67.95 70.94 0 5.52 4.48 10 10 10h42.18c5.52 0 10-4.48 10-10 0-11.28.99-15.26 1.83-16.62.12-.2.9-.9 5.67-1.47 1.11-.13 2.17-.44 3.13-.9.9.43 1.87.73 2.9.87 3.13.45 7.42 1.06 7.42 12.27s-2.18 12.4-3.35 13.23c-5.48 3.87-21.66 3.87-26.98 3.87s-10 4.48-10 10v32.33c0 5.52 4.48 10 10 10 10.27 0 24.58.5 30.33 4.81 2.4 1.8 4.62 5.17 4.62 17.51 0 11.19-4.46 14.05-11.67 15.03-.82.11-1.6.32-2.34.61-.84-.33-1.74-.56-2.67-.65-6.08-.62-9.28-8.1-9.49-22.22-.08-5.46-4.54-9.85-10-9.85h-43.1c-2.67 0-5.22 1.06-7.1 2.96s-2.92 4.46-2.9 7.12c.17 23.01 6.38 41.07 18.44 53.67 12.08 12.62 29.8 19.54 52.68 20.58.15 0 .3.01.45.01 1.27 0 2.53-.24 3.69-.71 1.17.46 2.42.71 3.69.71h.3c22.98-.69 40.76-7.08 52.86-19 12.22-12.04 18.41-29.41 18.41-51.65 0-20.52-6.39-36.24-19.03-46.91zm-61.47-63.61c-12.93 1.54-16.32 5.54-16.32 28.01h-42.18c0-39.71 18.78-58.8 58.49-60.96v32.94zm1.54 171.17c-40.64-1.85-61.27-23.4-61.57-64.34h43.1c.31 20.01 6.46 30.79 18.47 32.02v32.33zm7.39 0v-32.33c13.55-1.85 20.32-10.16 20.32-24.94 0-24.94-8-32.33-44.95-32.33v-32.33c33.56 0 40.33-6.16 40.33-27.09 0-13.24-5.23-20.63-16.01-22.16v-32.94c37.56 1.23 56.34 20.32 56.34 56.95 0 17.86-6.47 31.4-19.7 40.95 16.93 8.31 25.25 23.4 25.25 45.56 0 39.1-20.63 59.42-61.57 60.65z" fill="#ffeef2"/></g></g></svg>