<svg id="Layer_2" viewBox="0 0 512 512" xmlns="http://www.w3.org/2000/svg" xmlns:xlink="http://www.w3.org/1999/xlink" data-name="Layer 2"><linearGradient id="linear-gradient" gradientUnits="userSpaceOnUse" x1="43.93" x2="468.07" y1="43.93" y2="468.07"><stop offset="0" stop-color="#ff8c52"/><stop offset="1" stop-color="#ff2146"/></linearGradient><g id="Icon"><g id="_4" data-name="4"><rect fill="url(#linear-gradient)" height="512" rx="150" width="512"/><path d="m329.12 275.4h-17.4v-117.76c0-5.52-4.48-10-10-10h-42.18c-3.79 0-7.25 2.14-8.94 5.53l-.62 1.23c-.7 1.39-1.06 2.92-1.06 4.47v3.28c-2.44.66-4.61 2.24-5.97 4.52l-68.65 114.83c-.93 1.55-1.42 3.33-1.42 5.13v29.25c0 5.52 4.48 10 10 10h66.04v28.48c0 5.52 4.48 10 10 10h42.79c5.52 0 10-4.48 10-10v-28.48h17.4c5.52 0 10-4.48 10-10v-30.48c0-5.52-4.48-10-10-10zm-77.58-43.26-31.4 53.26h31.4v30.48h-68.65v-29.25l68.65-114.83zm-2.61 24.12v19.14h-11.29zm80.19 59.62h-27.4v38.48h-42.79v-195.49l.62-1.23h42.18v127.76h27.4v30.48z" fill="#ffeef2"/></g></g></svg>