<svg id="Layer_2" viewBox="0 0 512 512" xmlns="http://www.w3.org/2000/svg" xmlns:xlink="http://www.w3.org/1999/xlink" data-name="Layer 2"><linearGradient id="linear-gradient" gradientUnits="userSpaceOnUse" x1="43.93" x2="468.07" y1="43.93" y2="468.07"><stop offset="0" stop-color="#ff8c52"/><stop offset="1" stop-color="#ff2146"/></linearGradient><g id="Icon"><g id="_5" data-name="5"><rect fill="url(#linear-gradient)" height="512" rx="150" width="512"/><path d="m311.57 221.05c-11.36-9.62-27.96-14.59-49.33-14.76h-.08c-1.56 0-3.09.37-4.46 1.05-.95-.29-1.93-.44-2.93-.44-.78 0-1.57.09-2.35.28-2.73.66-5.67 1.46-8.62 2.52l.35-11.43h69.11c5.52 0 10-4.48 10-10v-32.63c0-5.52-4.48-10-10-10h-114.83c-5.36 0-9.76 4.22-9.99 9.57l-4.62 107.75c-.12 2.72.88 5.38 2.77 7.35s4.49 3.08 7.22 3.08h37.87c4.53 0 8.49-3.05 9.66-7.42.54-2.04 1.99-7.46 14.61-8.96.88-.1 1.72-.32 2.51-.63.8.32 1.66.54 2.56.64 7.15.82 7.15 3.02 7.15 6.07v37.25c0 13.15-4.82 13.97-7.7 14.46-.99.17-1.92.48-2.78.91-.32-.1-.65-.18-.99-.25-9.06-1.78-10.26-4.33-10.9-5.7-1.87-3.97-2.18-11.72-2.58-21.54v-.29c-.23-5.36-4.64-9.6-10-9.6h-40.64c-5.52 0-10 4.48-10 10 0 25.12 6.1 44.54 18.12 57.73 12.29 13.48 30.48 20.31 54.07 20.31 1.46 0 2.84-.31 4.08-.87 1.05.37 2.17.56 3.3.56.24 0 .48 0 .72-.03 55-3.99 66.54-36.09 66.54-62.31v-39.1c0-18.88-6.01-33.54-17.85-43.57zm-56.8 26.03c-12.93 1.54-20.63 7.08-23.09 16.32h-37.87l4.62-107.75h114.83v32.63h-78.81l-1.23 40.33c4.62-6.47 12.62-9.54 21.55-11.7zm0 109.29c-41.56 0-62.19-22.78-62.19-68.04h40.64c.92 23.09 1.23 32.94 21.55 36.94zm64.65-52.64c0 32.33-19.09 49.57-57.26 52.34v-31.4c10.78-1.85 16.01-9.85 16.01-24.32v-37.25c0-9.54-5.23-14.78-16.01-16.01v-30.78c38.17.31 57.26 16.62 57.26 48.33v39.1z" fill="#ffeef2"/></g></g></svg>