<svg id="Layer_2" viewBox="0 0 512 512" xmlns="http://www.w3.org/2000/svg" xmlns:xlink="http://www.w3.org/1999/xlink" data-name="Layer 2"><linearGradient id="linear-gradient" gradientUnits="userSpaceOnUse" x1="43.93" x2="468.07" y1="43.93" y2="468.07"><stop offset="0" stop-color="#ff8c52"/><stop offset="1" stop-color="#ff2146"/></linearGradient><g id="Icon"><g id="_6" data-name="6"><rect fill="url(#linear-gradient)" height="512" rx="150" width="512"/><path d="m334.19 216.28v-11.39c0-19.71-6.59-35.05-19.59-45.6-12.31-9.98-30.35-15.3-53.61-15.81-.07 0-.15 0-.22 0-1.22 0-2.42.22-3.54.65-1.12-.42-2.32-.65-3.54-.65-.07 0-.14 0-.21 0-62.54 1.31-75.67 33.95-75.67 61.1v96.67c0 30.2 12.82 66.38 73.89 67.26h.14c1.28 0 2.53-.24 3.69-.71 1.17.46 2.42.71 3.69.71h.28c61.72-1.75 74.67-37.21 74.67-66.64v-29.25c0-17.06-5.5-30.24-16.35-39.16-3.5-2.88-7.54-5.27-12.12-7.18h18.47c5.52 0 10-4.48 10-10zm-76.96-20.51c.79.3 1.63.5 2.5.59 6.05.63 7.7 1.29 8.02 1.73.79 1.08 2.1 4.89 2.1 18.19 0 1.62.38 3.15 1.07 4.5-10.45.25-19.97 2.12-28.48 5.59v-22.09c0-3.39 0-7.61 11.46-7.86 1.17-.03 2.29-.25 3.32-.64zm-1.69 121.12c-.86-.34-1.78-.57-2.75-.66-9.58-.91-10.34-4.65-10.34-9.44v-30.52c2.58-3.14 8.31-4.73 17.09-4.73 6.24 0 8.45 1.24 8.99 1.63.23.17.72.52.72 2.54v30.79c0 6.28-1.58 9.5-10.24 9.71-1.22.03-2.39.28-3.46.7zm68.65-44.27v29.25c0 36.63-21.55 55.41-64.96 56.65v-32.33c13.24-.31 20.01-7.08 20.01-19.7v-30.79c0-9.54-6.47-14.16-19.7-14.16-14.47 0-23.4 4-27.09 12.01v33.25c0 11.7 6.47 18.16 19.4 19.4v32.33c-42.79-.62-64.04-19.7-64.04-57.26v-96.67c0-33.25 21.86-50.18 65.88-51.1v32.94c-14.16.31-21.24 6.47-21.24 17.86v39.41c10.78-8.62 24.32-12.93 40.95-12.93 33.86 0 50.8 13.85 50.8 41.87zm-44.33-56.34c0-25.86-4.31-28.32-19.09-29.86v-32.94c42.18.92 63.42 18.16 63.42 51.41v11.39z" fill="#ffeef2"/></g></g></svg>