<svg id="Layer_2" viewBox="0 0 512 512" xmlns="http://www.w3.org/2000/svg" xmlns:xlink="http://www.w3.org/1999/xlink" data-name="Layer 2"><linearGradient id="linear-gradient" gradientUnits="userSpaceOnUse" x1="43.93" x2="468.07" y1="43.93" y2="468.07"><stop offset="0" stop-color="#ff8c52"/><stop offset="1" stop-color="#ff2146"/></linearGradient><g id="Icon"><g id="_7" data-name="7"><rect fill="url(#linear-gradient)" height="512" rx="150" width="512"/><path d="m315.57 147.64h-119.14c-5.52 0-10 4.48-10 10v32.63c0 5.52 4.48 10 10 10h62.18l-50.12 150.94c-1.01 3.05-.5 6.4 1.38 9 1.88 2.61 4.9 4.15 8.11 4.15h44.64c4.34 0 8.19-2.8 9.52-6.93l50.8-157.63c.35-1.09.51-2.21.48-3.33 1.35-1.71 2.16-3.86 2.16-6.21v-32.63c0-5.52-4.48-10-10-10zm-52.95 206.73h-44.64l52.34-157.63h43.1zm52.95-164.09h-119.14v-32.63h119.14z" fill="#ffeef2"/></g></g></svg>