<svg id="Layer_2" viewBox="0 0 512 512" xmlns="http://www.w3.org/2000/svg" xmlns:xlink="http://www.w3.org/1999/xlink" data-name="Layer 2"><linearGradient id="linear-gradient" gradientUnits="userSpaceOnUse" x1="43.93" x2="468.07" y1="43.93" y2="468.07"><stop offset="0" stop-color="#ff8c52"/><stop offset="1" stop-color="#ff2146"/></linearGradient><g id="Icon"><g id="_8" data-name="8"><rect fill="url(#linear-gradient)" height="512" rx="150" width="512"/><path d="m312.52 250.71c9.08-10.49 13.67-23.82 13.67-39.81 0-20.99-5.73-37.41-17.02-48.8-11.26-11.35-27.84-17.46-49.3-18.15-.11 0-.22 0-.33 0-1.22 0-2.42.22-3.54.65-1.12-.42-2.32-.65-3.54-.65-.11 0-.22 0-.33 0-21.19.7-37.6 6.82-48.78 18.18-11.23 11.41-16.92 27.82-16.92 48.77 0 15.88 4.53 29.15 13.49 39.6-12.64 10.67-19.03 26.39-19.03 46.91 0 22.25 6.13 39.62 18.23 51.62 12.02 11.93 29.76 18.33 52.73 19.02h.3c1.33 0 2.64-.27 3.85-.77 1.21.5 2.52.77 3.85.77h.3c22.97-.69 40.71-7.09 52.73-19.02 12.1-12.01 18.23-29.38 18.23-51.62 0-23.49-8.62-37.89-18.6-46.7zm-58.64-53.92c.8-.11 1.56-.32 2.28-.61.71.28 1.46.48 2.24.6 2.85.42 7.16 1.05 7.16 12.27s-4.22 14.56-8.78 16.04c-.34.11-.68.24-1 .39-.1-.04-.2-.07-.31-.1-4.68-1.47-9.01-4.46-9.01-16.32 0-11.21 4.29-11.82 7.42-12.27zm-1.72 161.27c-40.95-1.23-61.27-21.55-61.27-60.65 0-22.17 8.31-37.25 25.25-45.56-13.24-9.54-19.7-23.09-19.7-40.95 0-36.64 18.78-55.72 56.03-56.95v32.94c-10.78 1.54-16.01 8.93-16.01 22.16s5.23 22.48 16.01 25.86v34.48c-13.55 3.08-20.32 13.55-20.32 31.4 0 14.78 6.77 23.09 20.01 24.94zm6.31-42.23c-.87.12-1.69.35-2.47.67-.77-.32-1.6-.55-2.47-.67-7.03-.98-11.39-3.84-11.39-15.03 0-16.57 6.34-20.24 12.54-21.65.51-.12 1-.27 1.48-.46.39.16.8.29 1.22.4 5.81 1.49 12.49 5.3 12.49 21.71 0 11.19-4.36 14.05-11.39 15.03zm1.38 42.23v-32.33c13.24-1.85 20.01-10.16 20.01-24.94 0-17.55-6.77-28.02-20.01-31.4v-34.79c10.47-3.39 15.7-11.7 15.7-25.55s-5.23-20.63-15.7-22.16l-.31-32.94c37.87 1.23 56.65 20.32 56.65 56.95 0 17.86-6.47 31.4-19.7 40.95 16.32 8.31 24.63 23.71 24.63 45.56 0 39.1-20.32 59.42-61.27 60.65z" fill="#ffeef2"/></g></g></svg>