<svg id="Layer_2" viewBox="0 0 512 512" xmlns="http://www.w3.org/2000/svg" xmlns:xlink="http://www.w3.org/1999/xlink" data-name="Layer 2"><linearGradient id="linear-gradient" gradientUnits="userSpaceOnUse" x1="43.93" x2="468.07" y1="43.93" y2="468.07"><stop offset="0" stop-color="#ff8c52"/><stop offset="1" stop-color="#ff2146"/></linearGradient><g id="Icon"><g id="_9" data-name="9"><rect fill="url(#linear-gradient)" height="512" rx="150" width="512"/><path d="m314.7 160.89c-12.54-11.1-30.95-16.91-54.7-17.25-.05 0-.1 0-.14 0-1.22 0-2.42.22-3.54.65-1.12-.42-2.32-.65-3.54-.65-.07 0-.14 0-.21 0-61.78 1.31-74.75 36.63-74.75 66.03v29.86c0 16.95 5.53 30.05 16.42 38.92 3.49 2.85 7.54 5.22 12.11 7.11h-18.53c-5.52 0-10 4.48-10 10v11.08c0 27.67 12.77 60.84 73.58 61.72h.15c1.11 0 2.2-.18 3.23-.54 1.03.35 2.12.54 3.23.54h.14c62.86-.88 76.05-33.55 76.05-60.8v-96.98c0-21.53-6.56-38.25-19.5-49.7zm-58.79 34.26c1.01.43 2.1.7 3.25.78 9.68.68 10.4 3.92 10.4 8.8v31.12c-3.24 3.89-11.07 4.75-17.4 4.75s-8.33-1.29-8.86-1.69c-.29-.22-.84-.62-.84-2.78v-30.48c0-6.62 1.58-9.81 10.54-10.01 1.02-.02 1.99-.2 2.91-.5zm-4.37 163.21c-42.48-.62-63.73-17.86-63.73-51.72v-11.08h44.64c0 25.86 3.08 28.94 19.09 29.86zm3.68-42.24c-.97-.38-2.01-.62-3.11-.68-6.03-.35-7.52-.97-7.81-1.15-.69-.86-1.86-4.44-1.86-18.73 0-1.62-.38-3.15-1.07-4.5 10.22-.26 19.64-2.16 28.17-5.66v22.47c0 3.74 0 7.61-11.76 7.86-.89.02-1.75.15-2.57.39zm68.97-8.56c0 33.25-22.17 50.18-66.19 50.8v-32.63c14.47-.31 21.55-6.16 21.55-17.86v-39.72c-11.08 8.62-24.63 12.93-40.64 12.93-34.17 0-51.11-13.85-51.11-41.56v-29.86c0-36.63 21.55-55.11 64.96-56.03v32.02c-13.55.31-20.32 7.08-20.32 20.01v30.48c0 9.54 6.47 14.47 19.7 14.47 14.47 0 23.71-4 27.4-12.01v-33.86c0-11.7-6.47-17.86-19.7-18.78v-32.33c42.79.62 64.34 19.7 64.34 56.96v96.98z" fill="#ffeef2"/></g></g></svg>